<?xml version="1.0" encoding="utf-8"?>
<!-- Generator: Adobe Illustrator 19.0.0, SVG Export Plug-In . SVG Version: 6.00 Build 0)  -->
<svg version="1.1" id="Layer_1" xmlns="http://www.w3.org/2000/svg"  xmlns:pulse="pulse" xmlns:show="show" xmlns:hide="hide" xmlns:xlink="http://www.w3.org/1999/xlink" x="0px" y="0px"
	 viewBox="-298.3 361.1 50.7 60.9" style="enable-background:new -298.3 361.1 50.7 60.9;" xml:space="preserve">
<polygon points="-273.3,371.7 -273.3,371.7 -273.2,371.7 "/>
<path d="M-273.2,420.2c0.4,0,0.8,0,1.1,0h1.1c0.2,0,0.4,0,0.5,0l-1,0.9l0,0c-0.2,0.2-0.4,0.4-1.7,0.4c-1.3,0-1.5-0.2-1.7-0.4l0,0
	l-1-0.9c0.2,0,0.3,0,0.5,0h1C-274,420.2-273.6,420.2-273.2,420.2 M-281.2,408.7L-281.2,408.7C-281.2,408.7-281.2,408.7-281.2,408.7
	L-281.2,408.7c0.1,0.3,0.3,0.5,0.6,0.6c0.2,0.2,0.3,0.4,0.4,0.6c0.1,0.1,0.1,0.3,0.2,0.4c0.1,0.3,0.2,0.7,0.3,1.1
	c0.1,0.5,0.2,1,0.2,1.6l0.1,2v2.1v0.2l1.8,1.9l0.6,0.6l1.6,1.4l0,0c0.3,0.2,0.6,0.5,2.1,0.6h0c1.5-0.1,1.8-0.3,2.1-0.6l0,0l1.6-1.4
	l0.6-0.6h0l1.9-1.9h0v-0.2c0-0.6,0-1.4,0-2.1c0-0.7,0-1.3,0.1-2c0.1-0.6,0.1-1.1,0.2-1.6c0.1-0.5,0.2-0.8,0.3-1.1
	c0-0.2,0.1-0.3,0.2-0.4c0.1-0.2,0.3-0.4,0.4-0.6l0,0c1.7-0.6-0.1-4.4,4.2-10.9c2.2-3.2,4.3-6.7,4.3-10.9c0-8.7-7.1-15.9-15.8-15.9
	c-8.7,0-15.7,7.1-15.7,15.7c0,4.2,2.1,7.8,4.3,11C-281.2,403.8-281.8,407.3-281.2,408.7z M-278.7,415.1c0-0.3,0-0.6,0-0.9l2.1,0.1
	c1.3,0.1,2.7,0.1,3.9,0.1V414c-1.2,0-2.6,0-3.9-0.1c-0.8,0-1.5-0.1-2.2-0.1c0-0.2,0-0.4,0-0.7c0-0.2,0-0.3,0-0.5
	c0.7,0.1,1.5,0.1,2.3,0.2c1.3,0.1,2.7,0.1,3.9,0.1v-0.4c-1.2,0-2.6,0-3.9-0.1c-0.8,0-1.6-0.1-2.3-0.2l-0.1-0.7c0-0.2,0-0.3-0.1-0.4
	c0.8,0.1,1.6,0.1,2.5,0.2c1.3,0,2.7,0.1,3.9,0.1v-0.4c-1.2,0-2.6,0-3.9-0.1c-0.9,0-1.8-0.1-2.6-0.2l-0.1-0.4c0-0.2-0.1-0.3-0.2-0.5
	c0-0.1-0.1-0.2-0.2-0.3l0.2,0c0.3,0,0.7,0,1.1,0.1l2.4,0.1c0.9,0,1.9,0,2.7,0c0.9,0,1.8,0,2.8,0l2.3-0.1c0.4,0,0.8,0,1.1-0.1l0.2,0
	c-0.1,0.1-0.1,0.2-0.2,0.3c-0.1,0.2-0.2,0.4-0.2,0.5c-0.1,0.3-0.2,0.7-0.3,1.2c-0.1,0.5-0.2,1-0.2,1.6l-0.1,2v1.9h-0.2
	c-0.2,0-0.4,0-0.6,0c-0.2,0-0.5,0-0.7,0c-0.2,0-0.5,0-0.7,0c-0.3,0-0.6,0-0.8,0h-0.8h-0.8c-0.3,0-0.6,0-0.8,0c-0.3,0-0.6,0-0.8,0
	h-0.8h-0.8c-0.2,0-0.5,0-0.8,0s-0.5,0-0.8,0c-0.2,0-0.4,0-0.7,0c-0.2,0-0.4,0-0.6,0h-0.2v-1.3l2.1,0.1c1.3,0.1,2.7,0.1,3.9,0.1v-0.4
	c-1.2,0-2.6,0-3.9-0.1c-0.7,0-1.4-0.1-2.1-0.2L-278.7,415.1L-278.7,415.1z M-283.6,387.2c0,0.6-0.3,1.9-1.2,1.8
	c-1.2-0.1-1.1-1.4-1.1-1.8c-0.1-5.5,4.2-9.1,4.4-9.2c0.5-0.4,1.3-0.5,1.6,0c0.4,0.5,0.2,1-0.3,1.4
	C-280.3,379.5-283.7,382.9-283.6,387.2z"/>
	<g show:state="1">
		<path d="M-273,366.4c0.6,0,1.1-0.5,1.1-1.1v-3.2c0-0.6-0.5-1.1-1.1-1.1c-0.6,0-1.1,0.5-1.1,1.1v3.2
			C-274.1,366-273.6,366.4-273,366.4L-273,366.4z"/>
		<path d="M-284.4,368.7c0.2,0.3,0.6,0.5,0.9,0.5c0.2,0,0.4,0,0.5-0.1c0.5-0.3,0.7-1,0.4-1.5l-1.6-2.8c-0.3-0.5-1-0.7-1.5-0.4
			c-0.5,0.3-0.7,1-0.4,1.5L-284.4,368.7z"/>
		<path d="M-290.7,374.9l-2.8-1.6c-0.5-0.3-1.2-0.1-1.5,0.4c-0.3,0.5-0.1,1.2,0.4,1.5l2.8,1.6c0.2,0.1,0.4,0.1,0.5,0.1
			c0.4,0,0.7-0.2,0.9-0.5C-290,375.9-290.1,375.2-290.7,374.9L-290.7,374.9z"/>
		<path d="M-292.9,386.4c0-0.6-0.5-1.1-1.1-1.1h-3.2c-0.6,0-1.1,0.5-1.1,1.1c0,0.6,0.5,1.1,1.1,1.1h3.2
			C-293.4,387.5-292.9,387-292.9,386.4L-292.9,386.4z"/>
		<path d="M-291.7,396l-2.8,1.6c-0.5,0.3-0.7,1-0.4,1.5c0.2,0.3,0.6,0.5,0.9,0.5c0.2,0,0.4,0,0.5-0.1l2.8-1.6c0.5-0.3,0.7-1,0.4-1.5
			C-290.6,395.8-291.2,395.7-291.7,396L-291.7,396z"/>
		<path d="M-251.5,397.6l-2.8-1.6c-0.5-0.3-1.2-0.1-1.5,0.4c-0.3,0.5-0.1,1.2,0.4,1.5l2.8,1.6c0.2,0.1,0.4,0.1,0.5,0.1
			c0.4,0,0.7-0.2,0.9-0.5C-250.8,398.5-250.9,397.9-251.5,397.6L-251.5,397.6z"/>
		<path d="M-248.7,385.3h-3.2c-0.6,0-1.1,0.5-1.1,1.1c0,0.6,0.5,1.1,1.1,1.1h3.2c0.6,0,1.1-0.5,1.1-1.1
			C-247.7,385.8-248.1,385.3-248.7,385.3L-248.7,385.3z"/>
		<path d="M-254.8,377c0.2,0,0.4,0,0.5-0.1l2.8-1.6c0.5-0.3,0.7-1,0.4-1.5c-0.3-0.5-1-0.7-1.5-0.4l-2.8,1.6c-0.5,0.3-0.7,1-0.4,1.5
			C-255.5,376.8-255.2,377-254.8,377L-254.8,377z"/>
		<path d="M-263,369.1c0.2,0.1,0.4,0.1,0.5,0.1c0.4,0,0.7-0.2,0.9-0.5l1.6-2.8c0.3-0.5,0.1-1.2-0.4-1.5c-0.5-0.3-1.2-0.1-1.5,0.4
			l-1.6,2.8C-263.7,368.2-263.5,368.8-263,369.1L-263,369.1z"/>
		<path d="M-274.3,391.5"/>
	</g>
</svg>
